PathFileType	4	(X/Y/Z)	PS_ngait_og_ss1.trc	
DataRate	CameraRate	NumFrames	NumMarkers	Units	OrigDataRate	OrigDataStartFrame	OrigNumFrames	
120.00	120.00	10	36	mm	120.00	634	132	
Frame#	Time	Sternum			Neck			RShoulder			LShoulder			Xiphoid			Thoracic			RAsis			LAsis			RPsis			LPsis			LThighSuperior			LThighInferior			LThighLateral			LShankSuperior			LShankInferior			LShankLateral			RThighSuperior			RThighInferior			RThighLateral			RShankSuperior			RShankInferior			RShankLateral			RHeel			RToe			RMidfootLateral			RHindfoot			LHeel			LToe			LMidfootMedial			LMidfootLateral			LHindfoot			LMidfootSuperior			LToeMedial			LToeLateral			Sacral			RMidfootSuperior			
		X1	Y1	Z1	X2	Y2	Z2	X3	Y3	Z3	X4	Y4	Z4	X5	Y5	Z5	X6	Y6	Z6	X7	Y7	Z7	X8	Y8	Z8	X9	Y9	Z9	X10	Y10	Z10	X11	Y11	Z11	X12	Y12	Z12	X13	Y13	Z13	X14	Y14	Z14	X15	Y15	Z15	X16	Y16	Z16	X17	Y17	Z17	X18	Y18	Z18	X19	Y19	Z19	X20	Y20	Z20	X21	Y21	Z21	X22	Y22	Z22	X23	Y23	Z23	X24	Y24	Z24	X25	Y25	Z25	X26	Y26	Z26	X27	Y27	Z27	X28	Y28	Z28	X29	Y29	Z29	X30	Y30	Z30	X31	Y31	Z31	X32	Y32	Z32	X33	Y33	Z33	X34	Y34	Z34	X35	Y35	Z35	X36	Y36	Z36	

17	0.133	282.93817	1426.93555	154.86749	120.53524	1529.37476	149.24542	164.08800	1521.76685	312.89395	155.93047	1509.42407	10.65623	312.52399	1268.79871	171.82019	33.55898	1313.54089	162.75841	209.83438	1006.31909	314.36148	240.02731	1002.41681	40.97989	29.66392	1031.68982	214.70023	35.53403	1024.60437	111.42845	208.33386	831.94458	-13.60639	293.17123	616.40979	27.68585	334.98138	734.91571	74.48366	331.10925	383.53116	27.12479	319.37515	183.58681	61.51312	360.53601	282.53311	98.77979	136.19504	808.19141	356.41797	120.95603	569.24701	339.82822	225.60295	714.91644	296.67599	33.61866	444.24194	345.60294	-129.69110	253.57133	303.57068	-3.37619	313.68561	269.29065	-268.96066	221.61143	247.36896	-38.85239	21.45024	257.91156	-138.08963	48.07309	322.95068	-174.05153	83.43799	312.69843	232.33189	58.80607	111.80320	546.88770	64.43745	79.82718	452.76862	37.47894	140.04190	444.49289	33.38214	23.83727	390.18326	31.36995	36.39647	423.73923	98.74308	91.32775	493.93271	39.75959	133.05006	487.51196	44.75290	29.35203	32.59898	1028.14709	163.06435	-124.71799	137.10315	260.75049 
18	0.142	291.84180	1428.64612	153.77406	129.63783	1531.03784	148.49052	173.12146	1523.58215	311.83429	165.31920	1511.59314	9.67761	321.40430	1270.44519	170.60066	42.66512	1314.95923	161.74142	219.01276	1007.54535	313.34628	249.31802	1004.42316	39.42163	38.91417	1033.54150	213.71524	44.87331	1026.32410	110.10228	216.56079	832.79633	-14.07331	298.13272	616.38470	27.61893	342.17795	734.31641	73.05673	333.16660	383.54767	28.02955	320.77942	183.10858	61.89524	362.24759	281.47079	98.49036	149.56355	808.52350	355.96436	139.76024	569.31342	340.79141	240.35138	717.17767	296.08344	52.53157	446.65146	347.07547	-114.92831	260.41910	304.70688	13.06300	316.44180	270.67654	-251.97592	236.14737	248.97849	-36.85879	18.62805	258.49979	-133.93935	54.49446	323.57239	-166.80606	91.83540	313.53012	232.40689	58.81638	111.85921	547.12512	64.02318	79.88808	452.73187	37.32880	140.25439	444.38272	33.42222	23.79203	390.46564	31.20930	36.69954	424.05753	98.36982	91.76720	494.09955	39.50013	133.11223	487.63443	44.65740	29.42498	41.89374	1029.93274	161.90875	-118.42025	146.17032	261.66327 
19	0.150	300.60831	1430.30530	152.95695	138.41190	1532.68616	147.78688	181.92714	1525.23962	310.87930	174.61559	1513.59546	8.95296	330.12112	1272.02722	169.27136	51.68911	1316.48706	160.79294	227.95979	1008.81305	312.50183	258.57843	1006.16309	38.17866	48.00257	1035.31824	212.74951	54.10320	1027.83704	108.83855	224.23021	833.86932	-14.70617	303.24539	616.41309	27.59537	348.96658	733.87769	72.10480	335.60928	382.99078	28.27889	321.58664	183.29234	61.89244	364.22351	281.17972	98.80796	163.04929	808.96832	355.50208	158.56255	569.67804	341.37668	254.93976	719.54291	295.40714	71.64547	449.13724	348.50894	-99.52995	267.14273	305.68680	29.65447	319.85394	271.52600	-234.01318	250.72296	249.06241	-36.72980	13.79412	258.04617	-126.92386	61.30063	324.20636	-158.06976	101.16068	313.98447	232.43738	58.79984	111.83479	547.31952	63.66069	79.88160	452.93030	37.01638	140.14264	444.42682	33.40203	23.73997	390.47043	31.14811	36.67518	424.09103	98.15405	91.92616	494.24472	39.10446	133.04137	487.78674	44.55574	29.36871	51.05289	1031.57764	160.79404	-110.63169	156.16531	262.19876 
20	0.158	309.33762	1431.90332	152.00441	147.01793	1534.21765	147.19249	190.42227	1526.75623	310.03540	183.57462	1515.63123	8.18224	338.90799	1273.67993	168.24065	60.65035	1317.85461	159.95044	236.90631	1009.68066	311.46808	267.67584	1008.11084	36.93079	57.05940	1037.01184	211.74132	63.18222	1029.34082	107.66608	232.04659	835.20154	-16.00957	308.20947	616.60632	27.38961	355.50778	733.44525	71.28947	338.20001	382.53384	28.33008	323.02234	183.11229	62.08803	365.79398	280.85693	98.60186	176.67914	809.33728	355.13644	177.00729	570.18121	342.07587	269.32919	722.02606	294.65518	90.58918	451.86499	349.90381	-83.71684	273.62375	306.62671	45.48576	324.06436	271.81210	-216.77393	263.14926	250.28983	-34.44970	9.36596	257.59088	-117.86901	67.79418	323.21292	-148.02130	110.21459	314.67227	232.45581	58.72283	111.81348	547.37366	63.32919	79.81570	452.95956	36.74772	140.16261	444.39542	33.32939	23.61234	390.31390	31.28845	36.44140	424.04712	98.00678	91.95642	494.31186	38.78771	132.99524	487.75696	44.39626	29.33706	60.12081	1033.17639	159.70369	-101.53095	165.88896	262.96777 
21	0.167	318.06677	1433.60388	151.41875	155.47150	1535.60400	146.73251	198.85112	1528.18774	309.43155	192.41908	1517.44702	7.67965	347.72141	1275.17798	167.09442	69.44057	1319.32202	159.22272	245.67319	1010.34760	310.65012	276.50314	1010.26886	35.70264	65.91824	1038.62366	211.02625	72.00267	1030.85779	106.59609	239.35098	835.65436	-16.70845	313.38544	616.77667	26.82254	361.76273	732.98853	70.54718	341.16110	382.49219	27.93607	323.99597	183.08284	61.53266	367.24750	279.63782	98.14941	190.26198	810.26923	354.77475	195.11116	571.13898	342.60400	283.50201	724.64294	293.84637	109.48248	454.86182	351.14420	-67.72477	279.57626	307.35623	61.97803	328.01563	272.05032	-200.13319	272.39255	250.94234	-28.68337	8.77360	257.53391	-107.34865	74.36155	323.56467	-136.72981	117.59586	316.30331	232.46556	58.73196	111.76171	547.66681	62.95300	79.90423	452.86411	36.49260	140.21837	444.64331	33.21167	23.76690	390.22281	31.35284	36.37507	424.15347	97.80445	92.13313	494.45801	38.50290	132.97888	488.09116	44.19120	29.31333	68.96046	1034.74072	158.81117	-91.18719	173.93997	264.67996 
22	0.175	326.67627	1435.28613	150.60422	163.67772	1537.04846	146.14046	207.18074	1529.54297	308.92294	200.95634	1519.25610	7.18801	356.53766	1276.87427	166.13466	78.14244	1320.76794	158.52882	254.64439	1011.34192	309.51791	285.45084	1011.85272	34.67258	74.93795	1040.18152	209.96996	80.96281	1032.37268	105.61858	246.00494	835.41235	-16.73384	318.58551	616.49677	25.38803	367.79172	732.65607	69.67933	345.34726	382.31647	26.59331	324.59143	183.43692	61.05832	368.83670	279.19238	97.88547	203.23911	811.31744	354.20737	212.74641	572.91528	343.23624	297.45685	727.40894	293.00784	128.35875	457.83966	351.89304	-51.81851	285.86743	308.02777	78.84619	332.17288	271.85144	-184.99759	279.28424	251.44923	-15.82277	14.07959	258.14545	-93.60677	80.60661	324.42850	-122.13520	123.91319	316.24780	232.49475	58.80110	111.72352	547.79010	62.70024	79.80318	452.91370	36.41265	140.41626	444.64426	33.23361	23.69273	390.44586	31.03406	36.51217	424.21347	97.70111	91.99957	494.64172	38.36602	132.99150	488.05762	44.08986	29.34147	77.95038	1036.27710	157.79427	-77.54032	180.92703	264.70560 
23	0.183	335.14948	1436.66724	150.08638	171.96954	1538.31567	145.60454	215.56932	1530.72498	308.55563	209.35049	1520.90161	6.92226	365.17987	1278.36670	165.35681	86.83466	1322.16040	157.83348	263.48569	1012.25037	308.62683	293.79123	1013.10870	33.95796	83.67978	1041.72046	209.44833	89.36562	1033.75830	105.03880	253.73303	836.41595	-17.98647	323.67722	616.54248	24.32583	373.89899	732.25220	69.03255	347.51532	382.09860	27.02293	326.13547	183.07726	61.19200	370.90802	279.33939	98.57389	215.70934	812.63257	353.45151	230.10277	575.00598	343.68008	311.20355	730.33667	292.17230	147.00319	460.76041	352.06860	-35.41894	291.36340	308.74280	95.59245	336.37906	271.87067	-169.63150	284.73581	252.20792	1.56310	20.78297	258.77554	-77.06413	86.78843	325.04407	-105.73193	129.70782	316.87555	232.49008	58.84930	111.61771	547.81512	62.42753	79.67243	452.85275	36.45689	139.67107	444.24982	33.00352	23.20162	390.44183	30.88396	36.48529	424.15836	97.57196	91.80436	494.35519	38.23819	132.61404	488.28329	43.93446	28.93124	86.52270	1037.73938	157.24356	-62.08478	187.39140	265.41449 
24	0.192	343.64868	1438.25195	149.51031	180.24263	1539.71021	145.10637	223.97664	1531.87939	308.30942	217.58690	1522.65125	6.59244	373.85840	1279.97534	164.93085	95.55471	1323.46582	157.53001	272.28949	1013.31934	307.83112	302.09326	1014.28137	33.32497	92.36905	1043.17114	208.97787	97.75952	1035.16614	104.59841	260.91144	837.19733	-18.46618	328.21933	616.36615	24.03656	379.83353	731.92731	68.29423	350.08002	381.67361	26.71715	327.12906	182.93666	61.06723	372.16388	278.69601	97.75168	227.75735	814.02686	352.91409	247.35590	577.40051	343.94263	324.75809	733.43304	291.37537	165.27771	463.82660	351.70209	-18.29651	296.13995	308.74051	112.99165	340.01498	271.91830	-153.50912	288.42529	252.70691	20.72964	26.88515	259.44098	-57.96230	90.73139	324.64255	-87.95745	134.06056	317.19702	232.50926	58.90967	111.57185	547.96924	62.22940	79.50007	452.87958	36.22586	139.97493	444.25528	32.87489	23.11743	390.20996	31.09235	36.31945	424.23175	97.47669	91.72176	494.65775	38.06595	132.60295	488.27283	43.77225	28.93949	95.06429	1039.16870	156.78815	-45.25805	192.41386	265.81711 
25	0.200	352.20233	1439.62854	149.16966	188.54745	1541.12341	144.69637	232.46776	1533.04456	308.19354	225.85828	1524.31152	6.48073	382.52921	1281.39514	164.56779	104.11120	1324.96057	156.88068	281.21613	1014.71863	306.98041	310.54150	1015.83600	32.59415	101.11190	1044.51001	208.44362	106.28320	1036.61157	104.11801	268.00897	838.15540	-19.23895	332.68057	616.36633	23.45421	385.82904	731.55573	67.32055	352.58911	381.24744	26.41948	327.90482	182.84972	60.61107	373.59607	278.59479	97.60496	239.38861	815.98785	352.19128	264.04010	580.10504	344.10635	338.13782	736.69708	290.65311	183.24530	466.99084	351.35938	-0.31203	299.20004	309.02225	130.97942	343.26352	272.26611	-136.19998	291.19543	253.19826	40.69968	30.88326	259.62454	-39.02132	93.79195	324.67325	-69.39178	136.94624	317.42343	232.59914	58.94300	111.55099	548.09406	62.03937	79.49840	452.76648	35.91169	140.20300	444.28156	32.86976	23.05330	390.17801	31.13675	36.27063	424.32922	97.35905	91.70257	494.82065	37.81191	132.61032	488.32983	43.72732	28.96516	103.69755	1040.56079	156.28082	-27.64010	195.96928	266.12466 
26	0.208	360.58502	1441.28796	148.82401	196.90878	1542.61389	144.49232	240.94322	1534.19641	308.09891	233.95296	1526.06018	6.25913	391.20676	1283.26208	164.10484	112.84381	1326.32849	156.64873	290.11584	1016.41852	306.20667	319.11890	1017.05328	31.86799	109.87419	1045.91406	207.82887	114.94438	1038.05176	103.57219	275.71213	840.42126	-19.71568	337.74744	617.67462	23.16791	391.85141	731.05804	66.49349	355.21579	381.22256	26.13627	328.94836	182.98602	60.56574	375.31052	277.86829	97.10653	251.40723	818.68860	352.22919	280.29547	582.89484	344.13934	351.35614	740.11700	290.03931	201.09995	469.91428	351.14041	18.37310	300.97256	309.35547	149.82219	346.51691	272.81738	-117.71208	292.84406	254.30965	60.35680	33.44176	259.53821	-20.23309	96.22947	325.39117	-50.06848	138.72067	317.65518	232.59822	59.09063	111.56852	548.13806	61.73771	79.56465	452.77139	35.80640	140.25349	444.14731	32.90264	22.81667	390.47464	30.82644	36.43776	424.44833	97.27430	91.70101	494.81198	37.59412	132.66193	488.30905	43.65395	29.02587	112.40929	1041.98291	155.70053	-9.26454	198.41347	266.43756 
